<?xml version="1.0" encoding="utf-8"?>
<!-- Generator: Adobe Illustrator 23.0.2, SVG Export Plug-In . SVG Version: 6.00 Build 0)  -->
<svg version="1.1"
	 id="图层_1" xmlns:cc="http://creativecommons.org/ns#" xmlns:dc="http://purl.org/dc/elements/1.1/" xmlns:inkscape="http://www.inkscape.org/namespaces/inkscape" xmlns:rdf="http://www.w3.org/1999/02/22-rdf-syntax-ns#" xmlns:svg="http://www.w3.org/2000/svg"
	 xmlns="http://www.w3.org/2000/svg" xmlns:xlink="http://www.w3.org/1999/xlink" x="0px" y="0px" viewBox="0 0 1700.8 850.4"
	 style="enable-background:new 0 0 1700.8 850.4;" xml:space="preserve">
<style type="text/css">
	.st0{fill:none;stroke:#000000;stroke-width:0.2;stroke-linecap:round;stroke-linejoin:round;}
	.st1{fill:none;stroke:#160305;stroke-width:2;stroke-linecap:round;stroke-linejoin:round;}
	.st2{fill:none;stroke:#020000;stroke-width:2;stroke-miterlimit:10;}
	.st3{fill:none;stroke:#000000;stroke-width:2;stroke-miterlimit:10;}
	.st4{fill:none;stroke:#160305;stroke-width:2;stroke-miterlimit:10;}
</style>
<title>ClosedBox</title>
<g id="p-0">
	<path class="st0" d="M-1391.5,652.3h283.5V624h-283.5V652.3z"/>
	<text transform="matrix(1 0 0 1 -1360.7144 646.2897)" style="fill:#FF0000; font-family:'ArialMT'; font-size:22.6772px;">100mm, burn:0.10mm</text>
</g>
<g id="p-1">
	<path class="st1" d="M-1380.2,617.8h39.7c0.2,0,0.3-0.1,0.3-0.3v-11.1c0-0.3-0.3,0,0,0h22.1c0.3,0,0-0.3,0,0v11.1
		c0,0.2,0.1,0.3,0.3,0.3h22.7c0.2,0,0.3-0.1,0.3-0.3v-11.1c0-0.3-0.3,0,0,0h22c0.3,0,0-0.3,0,0v11.1c0,0.2,0.1,0.3,0.3,0.3h22.7
		c0.2,0,0.3-0.1,0.3-0.3v-11.1c0-0.3-0.3,0,0,0h22.1c0.3,0,0-0.3,0,0v11.1c0,0.2,0.1,0.3,0.3,0.3h22.7c0.2,0,0.3-0.1,0.3-0.3v-11.1
		c0-0.3-0.3,0,0,0h22.1c0.3,0,0-0.3,0,0v11.1c0,0.2,0.1,0.3,0.3,0.3h22.7c0.2,0,0.3-0.1,0.3-0.3v-11.1c0-0.3-0.3,0,0,0h22.1
		c0.3,0,0-0.3,0,0v11.1c0,0.2,0.1,0.3,0.3,0.3h22.7c0.2,0,0.3-0.1,0.3-0.3v-11.1c0-0.3-0.3,0,0,0h22.1c0.3,0,0-0.3,0,0v11.1
		c0,0.2,0.1,0.3,0.3,0.3h22.7c0.2,0,0.3-0.1,0.3-0.3v-11.1c0-0.3-0.3,0,0,0h22.1c0.3,0,0-0.3,0,0v11.1c0,0.2,0.1,0.3,0.3,0.3h22.7
		c0.2,0,0.3-0.1,0.3-0.3v-11.1c0-0.3-0.3,0,0,0h22.1c0.3,0,0-0.3,0,0v11.1c0,0.2,0.1,0.3,0.3,0.3h22.7c0.2,0,0.3-0.1,0.3-0.3v-11.1
		c0-0.3-0.3,0,0,0h22.1c0.3,0,0-0.3,0,0v11.1c0,0.2,0.1,0.3,0.3,0.3h22.7c0.2,0,0.3-0.1,0.3-0.3v-11.1c0-0.3-0.3,0,0,0h22.1
		c0.3,0,0-0.3,0,0v11.1c0,0.2,0.1,0.3,0.3,0.3h22.7c0.2,0,0.3-0.1,0.3-0.3v-11.1c0-0.3-0.3,0,0,0h22.1c0.3,0,0-0.3,0,0v11.1
		c0,0.2,0.1,0.3,0.3,0.3h22.7c0.2,0,0.3-0.1,0.3-0.3v-11.1c0-0.3-0.3,0,0,0h22.1c0.3,0,0-0.3,0,0v11.1c0,0.2,0.1,0.3,0.3,0.3h22.7
		c0.2,0,0.3-0.1,0.3-0.3v-11.1c0-0.3-0.3,0,0,0h22.1c0.3,0,0-0.3,0,0v11.1c0,0.2,0.1,0.3,0.3,0.3h22.7c0.2,0,0.3-0.1,0.3-0.3v-11.1
		c0-0.3-0.3,0,0,0h22.1c0.3,0,0-0.3,0,0v11.1c0,0.2,0.1,0.3,0.3,0.3h22.7c0.2,0,0.3-0.1,0.3-0.3v-11.1c0-0.3-0.3,0,0,0h22.1
		c0.3,0,0-0.3,0,0v11.1c0,0.2,0.1,0.3,0.3,0.3h22.7c0.2,0,0.3-0.1,0.3-0.3v-11.1c0-0.3-0.3,0,0,0h22.1c0.3,0,0-0.3,0,0v11.1
		c0,0.2,0.1,0.3,0.3,0.3h22.7c0.2,0,0.3-0.1,0.3-0.3v-11.1c0-0.3-0.3,0,0,0h22.1c0.3,0,0-0.3,0,0v11.1c0,0.2,0.1,0.3,0.3,0.3h39.7
		h11.3c0.2,0,0.3-0.1,0.3-0.3v-11.3v-22.7c0-0.2-0.1-0.3-0.3-0.3h-11.1c-0.3,0,0,0.3,0,0v-22.1c0-0.3-0.3,0,0,0h11.1
		c0.2,0,0.3-0.1,0.3-0.3v-22.7c0-0.2-0.1-0.3-0.3-0.3h-11.1c-0.3,0,0,0.3,0,0v-22.1c0-0.3-0.3,0,0,0h11.1c0.2,0,0.3-0.1,0.3-0.3
		v-22.7c0-0.2-0.1-0.3-0.3-0.3h-11.1c-0.3,0,0,0.3,0,0v-22.1c0-0.3-0.3,0,0,0h11.1c0.2,0,0.3-0.1,0.3-0.3v-22.7
		c0-0.2-0.1-0.3-0.3-0.3h-11.1c-0.3,0,0,0.3,0,0v-22c0-0.3-0.3,0,0,0h11.1c0.2,0,0.3-0.1,0.3-0.3V402v-11.3c0-0.2-0.1-0.3-0.3-0.3
		h-11.3h-39.7c-0.2,0-0.3,0.1-0.3,0.3v11.1c0,0.3,0.3,0,0,0h-22.1c-0.3,0,0,0.3,0,0v-11.1c0-0.2-0.1-0.3-0.3-0.3h-22.7
		c-0.2,0-0.3,0.1-0.3,0.3v11.1c0,0.3,0.3,0,0,0h-22.1c-0.3,0,0,0.3,0,0v-11.1c0-0.2-0.1-0.3-0.3-0.3h-22.7c-0.2,0-0.3,0.1-0.3,0.3
		v11.1c0,0.3,0.3,0,0,0h-22.1c-0.3,0,0,0.3,0,0v-11.1c0-0.2-0.1-0.3-0.3-0.3h-22.7c-0.2,0-0.3,0.1-0.3,0.3v11.1c0,0.3,0.3,0,0,0
		h-22.1c-0.3,0,0,0.3,0,0v-11.1c0-0.2-0.1-0.3-0.3-0.3h-22.7c-0.2,0-0.3,0.1-0.3,0.3v11.1c0,0.3,0.3,0,0,0h-22.1c-0.3,0,0,0.3,0,0
		v-11.1c0-0.2-0.1-0.3-0.3-0.3h-22.7c-0.2,0-0.3,0.1-0.3,0.3v11.1c0,0.3,0.3,0,0,0h-22.1c-0.3,0,0,0.3,0,0v-11.1
		c0-0.2-0.1-0.3-0.3-0.3h-22.7c-0.2,0-0.3,0.1-0.3,0.3v11.1c0,0.3,0.3,0,0,0h-22.1c-0.3,0,0,0.3,0,0v-11.1c0-0.2-0.1-0.3-0.3-0.3
		h-22.7c-0.2,0-0.3,0.1-0.3,0.3v11.1c0,0.3,0.3,0,0,0h-22.1c-0.3,0,0,0.3,0,0v-11.1c0-0.2-0.1-0.3-0.3-0.3h-22.7
		c-0.2,0-0.3,0.1-0.3,0.3v11.1c0,0.3,0.3,0,0,0h-22.1c-0.3,0,0,0.3,0,0v-11.1c0-0.2-0.1-0.3-0.3-0.3h-22.7c-0.2,0-0.3,0.1-0.3,0.3
		v11.1c0,0.3,0.3,0,0,0h-22.1c-0.3,0,0,0.3,0,0v-11.1c0-0.2-0.1-0.3-0.3-0.3h-22.7c-0.2,0-0.3,0.1-0.3,0.3v11.1c0,0.3,0.3,0,0,0
		h-22.1c-0.3,0,0,0.3,0,0v-11.1c0-0.2-0.1-0.3-0.3-0.3h-22.7c-0.2,0-0.3,0.1-0.3,0.3v11.1c0,0.3,0.3,0,0,0h-22.1c-0.3,0,0,0.3,0,0
		v-11.1c0-0.2-0.1-0.3-0.3-0.3h-22.7c-0.2,0-0.3,0.1-0.3,0.3v11.1c0,0.3,0.3,0,0,0h-22.2c-0.3,0,0,0.3,0,0v-11.1
		c0-0.2-0.1-0.3-0.3-0.3h-22.7c-0.2,0-0.3,0.1-0.3,0.3v11.1c0,0.3,0.3,0,0,0h-22.1c-0.3,0,0,0.3,0,0v-11.1c0-0.2-0.1-0.3-0.3-0.3
		h-22.7c-0.2,0-0.3,0.1-0.3,0.3v11.1c0,0.3,0.3,0,0,0h-22.1c-0.3,0,0,0.3,0,0v-11.1c0-0.2-0.1-0.3-0.3-0.3h-22.7
		c-0.2,0-0.3,0.1-0.3,0.3v11.1c0,0.3,0.3,0,0,0h-22.1c-0.3,0,0,0.3,0,0v-11.1c0-0.2-0.1-0.3-0.3-0.3h-22.5c-0.2,0-0.3,0.1-0.3,0.3
		v11.1c0,0.3,0.3,0,0,0h-22.1c-0.3,0,0,0.3,0,0v-11.1c0-0.2-0.1-0.3-0.3-0.3h-39.7h-11.3c-0.2,0-0.3,0.1-0.3,0.3V402v22.7
		c0,0.2,0.1,0.3,0.3,0.3h11.1c0.3,0,0-0.3,0,0v22.1c0,0.3,0.3,0,0,0h-11.1c-0.2,0-0.3,0.1-0.3,0.3v22.7c0,0.2,0.1,0.3,0.3,0.3h11.1
		c0.3,0,0-0.3,0,0v22.1c0,0.3,0.3,0,0,0h-11.1c-0.2,0-0.3,0.1-0.3,0.3v22.7c0,0.2,0.1,0.3,0.3,0.3h11.1c0.3,0,0-0.3,0,0v22.1
		c0,0.3,0.3,0,0,0h-11.1c-0.2,0-0.3,0.1-0.3,0.3v22.7c0,0.2,0.1,0.3,0.3,0.3h11.1c0.3,0,0-0.3,0,0v22.1c0,0.3,0.3,0,0,0h-11.1
		c-0.2,0-0.3,0.1-0.3,0.3v22.7v11.3c0,0.2,0.1,0.3,0.3,0.3L-1380.2,617.8"/>
</g>
<g id="p-2">
	<path class="st1" d="M2762.3,87.8v36.9c0,0.2,0.1,0.3,0.3,0.3h11.1c0.3,0,0-0.3,0,0v22.1c0,0.3,0.3,0,0,0h-11.1
		c-0.2,0-0.3,0.1-0.3,0.3v22.7c0,0.2,0.1,0.3,0.3,0.3h11.1c0.3,0,0-0.3,0,0v22.1c0,0.3,0.3,0,0,0h-11.1c-0.2,0-0.3,0.1-0.3,0.3v22.7
		c0,0.2,0.1,0.3,0.3,0.3h11.1c0.3,0,0-0.3,0,0v22.1c0,0.3,0.3,0,0,0h-11.1c-0.2,0-0.3,0.1-0.3,0.3v22.7c0,0.2,0.1,0.3,0.3,0.3h11.1
		c0.3,0,0-0.3,0,0v22.1c0,0.3,0.3,0,0,0h-11.1c-0.2,0-0.3,0.1-0.3,0.3v22.7c0,0.2,0.1,0.3,0.3,0.3h11.1c0.3,0,0-0.3,0,0v22.1
		c0,0.3,0.3,0,0,0h-11.1c-0.2,0-0.3,0.1-0.3,0.3v22.7c0,0.2,0.1,0.3,0.3,0.3h11.1c0.3,0,0-0.3,0,0v22.1c0,0.3,0.3,0,0,0h-11.1
		c-0.2,0-0.3,0.1-0.3,0.3v22.7c0,0.2,0.1,0.3,0.3,0.3h11.1c0.3,0,0-0.3,0,0v22.1c0,0.3,0.3,0,0,0h-11.1c-0.2,0-0.3,0.1-0.3,0.3v22.7
		c0,0.2,0.1,0.3,0.3,0.3h11.1c0.3,0,0-0.3,0,0v22.1c0,0.3,0.3,0,0,0h-11.1c-0.2,0-0.3,0.1-0.3,0.3v22.7c0,0.2,0.1,0.3,0.3,0.3h11.1
		c0.3,0,0-0.3,0,0v22.1c0,0.3,0.3,0,0,0h-11.1c-0.2,0-0.3,0.1-0.3,0.3v22.7c0,0.2,0.1,0.3,0.3,0.3h11.1c0.3,0,0-0.3,0,0v22.1
		c0,0.3,0.3,0,0,0h-11.1c-0.2,0-0.3,0.1-0.3,0.3v22.7c0,0.2,0.1,0.3,0.3,0.3h11.1c0.3,0,0-0.3,0,0v21.6c0,0.3,0.3,0,0,0h-11.1
		c-0.2,0-0.3,0.1-0.3,0.3v22.7c0,0.2,0.1,0.3,0.3,0.3h11.1c0.3,0,0-0.3,0,0V646c0,0.3,0.3,0,0,0h-11.1c-0.2,0-0.3,0.1-0.3,0.3V669
		c0,0.2,0.1,0.3,0.3,0.3h11.1c0.3,0,0-0.3,0,0v22.1c0,0.3,0.3,0,0,0h-11.1c-0.2,0-0.3,0.1-0.3,0.3v22.7c0,0.2,0.1,0.3,0.3,0.3h11.1
		c0.3,0,0-0.3,0,0v22.1c0,0.3,0.3,0,0,0h-11.1c-0.2,0-0.3,0.1-0.3,0.3V774c0,0.2,0.1,0.3,0.3,0.3h11.3h22.4c0.3,0,0-0.3,0,0v11.1
		c0,0.2,0.1,0.3,0.3,0.3h22.7c0.2,0,0.3-0.1,0.3-0.3v-11.1c0-0.3-0.3,0,0,0h22.1c0.3,0,0-0.3,0,0v11.1c0,0.2,0.1,0.3,0.3,0.3h22.7
		c0.2,0,0.3-0.1,0.3-0.3v-11.1c0-0.3-0.3,0,0,0h22.1c0.3,0,0-0.3,0,0v11.1c0,0.2,0.1,0.3,0.3,0.3h22.7c0.2,0,0.3-0.1,0.3-0.3v-11.1
		c0-0.3-0.3,0,0,0h22.1c0.3,0,0-0.3,0,0v11.1c0,0.2,0.1,0.3,0.3,0.3h22.7c0.2,0,0.3-0.1,0.3-0.3v-11.1c0-0.3-0.3,0,0,0h22.4h11.3
		c0.2,0,0.3-0.1,0.3-0.3V737c0-0.2-0.1-0.3-0.3-0.3h-11.1c-0.3,0,0,0.3,0,0v-22.1c0-0.3-0.3,0,0,0h11.1c0.2,0,0.3-0.1,0.3-0.3v-22.8
		c0-0.2-0.1-0.3-0.3-0.3h-11.1c-0.3,0,0,0.3,0,0v-22.1c0-0.3-0.3,0,0,0h11.1c0.2,0,0.3-0.1,0.3-0.3v-22.7c0-0.2-0.1-0.3-0.3-0.3
		h-11.1c-0.3,0,0,0.3,0,0v-22.1c0-0.3-0.3,0,0,0h11.1c0.2,0,0.3-0.1,0.3-0.3v-22.7c0-0.2-0.1-0.3-0.3-0.3h-11.1c-0.3,0,0,0.3,0,0
		v-22.1c0-0.3-0.3,0,0,0h11.1c0.2,0,0.3-0.1,0.3-0.3v-22.7c0-0.2-0.1-0.3-0.3-0.3h-11.1c-0.3,0,0,0.3,0,0V533c0-0.3-0.3,0,0,0h11.1
		c0.2,0,0.3-0.1,0.3-0.3V510c0-0.2-0.1-0.3-0.3-0.3h-11.1c-0.3,0,0,0.3,0,0v-22.1c0-0.3-0.3,0,0,0h11.1c0.2,0,0.3-0.1,0.3-0.3v-22.7
		c0-0.2-0.1-0.3-0.3-0.3h-11.1c-0.3,0,0,0.3,0,0v-22.1c0-0.3-0.3,0,0,0h11.1c0.2,0,0.3-0.1,0.3-0.3v-22.7c0-0.2-0.1-0.3-0.3-0.3
		h-11.1c-0.3,0,0,0.3,0,0v-22.1c0-0.3-0.3,0,0,0h11.1c0.2,0,0.3-0.1,0.3-0.3v-22.7c0-0.2-0.1-0.3-0.3-0.3h-11.1c-0.3,0,0,0.3,0,0
		v-22.1c0-0.3-0.3,0,0,0h11.1c0.2,0,0.3-0.1,0.3-0.3v-22.7c0-0.2-0.1-0.3-0.3-0.3h-11.1c-0.3,0,0,0.3,0,0V306c0-0.3-0.3,0,0,0h11.1
		c0.2,0,0.3-0.1,0.3-0.3V283c0-0.2-0.1-0.3-0.3-0.3h-11.1c-0.3,0,0,0.3,0,0v-22.1c0-0.3-0.3,0,0,0h11.1c0.2,0,0.3-0.1,0.3-0.3v-22.7
		c0-0.2-0.1-0.3-0.3-0.3h-11.1c-0.3,0,0,0.3,0,0v-21.7c0-0.3-0.3,0,0,0h11.1c0.2,0,0.3-0.1,0.3-0.3v-22.7c0-0.2-0.1-0.3-0.3-0.3
		h-11.1c-0.3,0,0,0.3,0,0v-22.1c0-0.3-0.3,0,0,0h11.1c0.2,0,0.3-0.1,0.3-0.3v-22.7c0-0.2-0.1-0.3-0.3-0.3h-11.1c-0.3,0,0,0.3,0,0
		v-22.1c0-0.3-0.3,0,0,0h11.1c0.2,0,0.3-0.1,0.3-0.3V87.8c0-0.2-0.1-0.3-0.3-0.3h-11.3h-22.4c-0.3,0,0,0.3,0,0v-11
		c0-0.2-0.1-0.3-0.3-0.3h-22.8c-0.2,0-0.3,0.1-0.3,0.3v11.1c0,0.3,0.3,0,0,0h-22.1c-0.3,0,0,0.3,0,0V76.5c0-0.2-0.1-0.3-0.3-0.3
		h-22.7c-0.2,0-0.3,0.1-0.3,0.3v11.1c0,0.3,0.3,0,0,0h-22.1c-0.3,0,0,0.3,0,0V76.5c0-0.2-0.1-0.3-0.3-0.3h-22.7
		c-0.2,0-0.3,0.1-0.3,0.3v11.1c0,0.3,0.3,0,0,0h-22.1c-0.3,0,0,0.3,0,0V76.5c0-0.2-0.1-0.3-0.3-0.3h-22.7c-0.2,0-0.3,0.1-0.3,0.3
		v11.1c0,0.3,0.3,0,0,0h-22.4h-11.3C2762.4,87.5,2762.3,87.6,2762.3,87.8"/>
</g>
<g id="p-3">
	<path class="st1" d="M3008.3,87.8v36.9c0,0.2,0.1,0.3,0.3,0.3h11.1c0.3,0,0-0.3,0,0v22.1c0,0.3,0.3,0,0,0h-11.1
		c-0.2,0-0.3,0.1-0.3,0.3v22.7c0,0.2,0.1,0.3,0.3,0.3h11.1c0.3,0,0-0.3,0,0v22.1c0,0.3,0.3,0,0,0h-11.1c-0.2,0-0.3,0.1-0.3,0.3v22.7
		c0,0.2,0.1,0.3,0.3,0.3h11.1c0.3,0,0-0.3,0,0v22.1c0,0.3,0.3,0,0,0h-11.1c-0.2,0-0.3,0.1-0.3,0.3v22.7c0,0.2,0.1,0.3,0.3,0.3h11.1
		c0.3,0,0-0.3,0,0v22.1c0,0.3,0.3,0,0,0h-11.1c-0.2,0-0.3,0.1-0.3,0.3v22.7c0,0.2,0.1,0.3,0.3,0.3h11.1c0.3,0,0-0.3,0,0v22.1
		c0,0.3,0.3,0,0,0h-11.1c-0.2,0-0.3,0.1-0.3,0.3v22.7c0,0.2,0.1,0.3,0.3,0.3h11.1c0.3,0,0-0.3,0,0v22.1c0,0.3,0.3,0,0,0h-11.1
		c-0.2,0-0.3,0.1-0.3,0.3v22.7c0,0.2,0.1,0.3,0.3,0.3h11.1c0.3,0,0-0.3,0,0v22.1c0,0.3,0.3,0,0,0h-11.1c-0.2,0-0.3,0.1-0.3,0.3v22.7
		c0,0.2,0.1,0.3,0.3,0.3h11.1c0.3,0,0-0.3,0,0v22.1c0,0.3,0.3,0,0,0h-11.1c-0.2,0-0.3,0.1-0.3,0.3v22.7c0,0.2,0.1,0.3,0.3,0.3h11.1
		c0.3,0,0-0.3,0,0v22.1c0,0.3,0.3,0,0,0h-11.1c-0.2,0-0.3,0.1-0.3,0.3v22.7c0,0.2,0.1,0.3,0.3,0.3h11.1c0.3,0,0-0.3,0,0v22.1
		c0,0.3,0.3,0,0,0h-11.1c-0.2,0-0.3,0.1-0.3,0.3v22.7c0,0.2,0.1,0.3,0.3,0.3h11.1c0.3,0,0-0.3,0,0v21.6c0,0.3,0.3,0,0,0h-11.1
		c-0.2,0-0.3,0.1-0.3,0.3v22.7c0,0.2,0.1,0.3,0.3,0.3h11.1c0.3,0,0-0.3,0,0V646c0,0.3,0.3,0,0,0h-11.1c-0.2,0-0.3,0.1-0.3,0.3V669
		c0,0.2,0.1,0.3,0.3,0.3h11.1c0.3,0,0-0.3,0,0v22.1c0,0.3,0.3,0,0,0h-11.1c-0.2,0-0.3,0.1-0.3,0.3v22.7c0,0.2,0.1,0.3,0.3,0.3h11.1
		c0.3,0,0-0.3,0,0v22.1c0,0.3,0.3,0,0,0h-11.1c-0.2,0-0.3,0.1-0.3,0.3V774c0,0.2,0.1,0.3,0.3,0.3h11.3h22.4c0.3,0,0-0.3,0,0v11.1
		c0,0.2,0.1,0.3,0.3,0.3h22.7c0.2,0,0.3-0.1,0.3-0.3v-11.1c0-0.3-0.3,0,0,0h22.1c0.3,0,0-0.3,0,0v11.1c0,0.2,0.1,0.3,0.3,0.3h22.7
		c0.2,0,0.3-0.1,0.3-0.3v-11.1c0-0.3-0.3,0,0,0h22.1c0.3,0,0-0.3,0,0v11.1c0,0.2,0.1,0.3,0.3,0.3h22.7c0.2,0,0.3-0.1,0.3-0.3v-11.1
		c0-0.3-0.3,0,0,0h22.1c0.3,0,0-0.3,0,0v11.1c0,0.2,0.1,0.3,0.3,0.3h22.7c0.2,0,0.3-0.1,0.3-0.3v-11.1c0-0.3-0.3,0,0,0h22.4h11.3
		c0.2,0,0.3-0.1,0.3-0.3V737c0-0.2-0.1-0.3-0.3-0.3h-11.1c-0.3,0,0,0.3,0,0v-22.1c0-0.3-0.3,0,0,0h11.1c0.2,0,0.3-0.1,0.3-0.3v-22.8
		c0-0.2-0.1-0.3-0.3-0.3h-11.1c-0.3,0,0,0.3,0,0v-22.1c0-0.3-0.3,0,0,0h11.1c0.2,0,0.3-0.1,0.3-0.3v-22.7c0-0.2-0.1-0.3-0.3-0.3
		h-11.1c-0.3,0,0,0.3,0,0v-22.1c0-0.3-0.3,0,0,0h11.1c0.2,0,0.3-0.1,0.3-0.3v-22.7c0-0.2-0.1-0.3-0.3-0.3h-11.1c-0.3,0,0,0.3,0,0
		v-22.1c0-0.3-0.3,0,0,0h11.1c0.2,0,0.3-0.1,0.3-0.3v-22.7c0-0.2-0.1-0.3-0.3-0.3h-11.1c-0.3,0,0,0.3,0,0V533c0-0.3-0.3,0,0,0h11.1
		c0.2,0,0.3-0.1,0.3-0.3V510c0-0.2-0.1-0.3-0.3-0.3h-11.1c-0.3,0,0,0.3,0,0v-22.1c0-0.3-0.3,0,0,0h11.1c0.2,0,0.3-0.1,0.3-0.3v-22.7
		c0-0.2-0.1-0.3-0.3-0.3h-11.1c-0.3,0,0,0.3,0,0v-22.1c0-0.3-0.3,0,0,0h11.1c0.2,0,0.3-0.1,0.3-0.3v-22.7c0-0.2-0.1-0.3-0.3-0.3
		h-11.1c-0.3,0,0,0.3,0,0v-22.1c0-0.3-0.3,0,0,0h11.1c0.2,0,0.3-0.1,0.3-0.3v-22.7c0-0.2-0.1-0.3-0.3-0.3h-11.1c-0.3,0,0,0.3,0,0
		v-22.1c0-0.3-0.3,0,0,0h11.1c0.2,0,0.3-0.1,0.3-0.3v-22.7c0-0.2-0.1-0.3-0.3-0.3h-11.1c-0.3,0,0,0.3,0,0V306c0-0.3-0.3,0,0,0h11.1
		c0.2,0,0.3-0.1,0.3-0.3V283c0-0.2-0.1-0.3-0.3-0.3h-11.1c-0.3,0,0,0.3,0,0v-22.1c0-0.3-0.3,0,0,0h11.1c0.2,0,0.3-0.1,0.3-0.3v-22.7
		c0-0.2-0.1-0.3-0.3-0.3h-11.1c-0.3,0,0,0.3,0,0v-21.7c0-0.3-0.3,0,0,0h11.1c0.2,0,0.3-0.1,0.3-0.3v-22.7c0-0.2-0.1-0.3-0.3-0.3
		h-11.1c-0.3,0,0,0.3,0,0v-22.1c0-0.3-0.3,0,0,0h11.1c0.2,0,0.3-0.1,0.3-0.3v-22.7c0-0.2-0.1-0.3-0.3-0.3h-11.1c-0.3,0,0,0.3,0,0
		v-22.1c0-0.3-0.3,0,0,0h11.1c0.2,0,0.3-0.1,0.3-0.3V87.8c0-0.2-0.1-0.3-0.3-0.3h-11.3h-22.5c-0.3,0,0,0.3,0,0v-11
		c0-0.2-0.1-0.3-0.3-0.3h-22.7c-0.2,0-0.3,0.1-0.3,0.3v11.1c0,0.3,0.3,0,0,0h-22.1c-0.3,0,0,0.3,0,0V76.5c0-0.2-0.1-0.3-0.3-0.3
		h-22.7c-0.2,0-0.3,0.1-0.3,0.3v11.1c0,0.3,0.3,0,0,0h-22.1c-0.3,0,0,0.3,0,0V76.5c0-0.2-0.1-0.3-0.3-0.3h-22.7
		c-0.2,0-0.3,0.1-0.3,0.3v11.1c0,0.3,0.3,0,0,0h-22.1c-0.3,0,0,0.3,0,0V76.5c0-0.2-0.1-0.3-0.3-0.3h-22.7c-0.2,0-0.3,0.1-0.3,0.3
		v11.1c0,0.3,0.3,0,0,0h-22.4h-11.3C3008.5,87.5,3008.3,87.6,3008.3,87.8"/>
</g>
<g id="p-4">
	<path class="st1" d="M-1380.2,359.8h39.7c0.2,0,0.3-0.1,0.3-0.3v-11.1c0-0.3-0.3,0,0,0h22.1c0.3,0,0-0.3,0,0v11.1
		c0,0.2,0.1,0.3,0.3,0.3h22.7c0.2,0,0.3-0.1,0.3-0.3v-11.1c0-0.3-0.3,0,0,0h22c0.3,0,0-0.3,0,0v11.1c0,0.2,0.1,0.3,0.3,0.3h22.7
		c0.2,0,0.3-0.1,0.3-0.3v-11.1c0-0.3-0.3,0,0,0h22.1c0.3,0,0-0.3,0,0v11.1c0,0.2,0.1,0.3,0.3,0.3h22.7c0.2,0,0.3-0.1,0.3-0.3v-11.1
		c0-0.3-0.3,0,0,0h22.1c0.3,0,0-0.3,0,0v11.1c0,0.2,0.1,0.3,0.3,0.3h22.7c0.2,0,0.3-0.1,0.3-0.3v-11.1c0-0.3-0.3,0,0,0h22.1
		c0.3,0,0-0.3,0,0v11.1c0,0.2,0.1,0.3,0.3,0.3h22.7c0.2,0,0.3-0.1,0.3-0.3v-11.1c0-0.3-0.3,0,0,0h22.1c0.3,0,0-0.3,0,0v11.1
		c0,0.2,0.1,0.3,0.3,0.3h22.7c0.2,0,0.3-0.1,0.3-0.3v-11.1c0-0.3-0.3,0,0,0h22.1c0.3,0,0-0.3,0,0v11.1c0,0.2,0.1,0.3,0.3,0.3h22.7
		c0.2,0,0.3-0.1,0.3-0.3v-11.1c0-0.3-0.3,0,0,0h22.1c0.3,0,0-0.3,0,0v11.1c0,0.2,0.1,0.3,0.3,0.3h22.7c0.2,0,0.3-0.1,0.3-0.3v-11.1
		c0-0.3-0.3,0,0,0h22.1c0.3,0,0-0.3,0,0v11.1c0,0.2,0.1,0.3,0.3,0.3h22.7c0.2,0,0.3-0.1,0.3-0.3v-11.1c0-0.3-0.3,0,0,0h22.1
		c0.3,0,0-0.3,0,0v11.1c0,0.2,0.1,0.3,0.3,0.3h22.7c0.2,0,0.3-0.1,0.3-0.3v-11.1c0-0.3-0.3,0,0,0h22.1c0.3,0,0-0.3,0,0v11.1
		c0,0.2,0.1,0.3,0.3,0.3h22.7c0.2,0,0.3-0.1,0.3-0.3v-11.1c0-0.3-0.3,0,0,0h22.1c0.3,0,0-0.3,0,0v11.1c0,0.2,0.1,0.3,0.3,0.3h22.7
		c0.2,0,0.3-0.1,0.3-0.3v-11.1c0-0.3-0.3,0,0,0h22.1c0.3,0,0-0.3,0,0v11.1c0,0.2,0.1,0.3,0.3,0.3h22.7c0.2,0,0.3-0.1,0.3-0.3v-11.1
		c0-0.3-0.3,0,0,0h22.1c0.3,0,0-0.3,0,0v11.1c0,0.2,0.1,0.3,0.3,0.3h22.7c0.2,0,0.3-0.1,0.3-0.3v-11.1c0-0.3-0.3,0,0,0h22.1
		c0.3,0,0-0.3,0,0v11.1c0,0.2,0.1,0.3,0.3,0.3h22.7c0.2,0,0.3-0.1,0.3-0.3v-11.1c0-0.3-0.3,0,0,0h22.1c0.3,0,0-0.3,0,0v11.1
		c0,0.2,0.1,0.3,0.3,0.3h22.7c0.2,0,0.3-0.1,0.3-0.3v-11.1c0-0.3-0.3,0,0,0h22.1c0.3,0,0-0.3,0,0v11.1c0,0.2,0.1,0.3,0.3,0.3h39.7
		h11.3c0.2,0,0.3-0.1,0.3-0.3v-11.3v-22.7c0-0.2-0.1-0.3-0.3-0.3h-11.1c-0.3,0,0,0.3,0,0v-22.1c0-0.3-0.3,0,0,0h11.1
		c0.2,0,0.3-0.1,0.3-0.3v-22.7c0-0.2-0.1-0.3-0.3-0.3h-11.1c-0.3,0,0,0.3,0,0v-22.1c0-0.3-0.3,0,0,0h11.1c0.2,0,0.3-0.1,0.3-0.3
		v-22.7c0-0.2-0.1-0.3-0.3-0.3h-11.1c-0.3,0,0,0.3,0,0v-22.1c0-0.3-0.3,0,0,0h11.1c0.2,0,0.3-0.1,0.3-0.3v-22.7
		c0-0.2-0.1-0.3-0.3-0.3h-11.1c-0.3,0,0,0.3,0,0v-22c0-0.3-0.3,0,0,0h11.1c0.2,0,0.3-0.1,0.3-0.3V144v-11.3c0-0.2-0.1-0.3-0.3-0.3
		h-11.3h-39.7c-0.2,0-0.3,0.1-0.3,0.3v11.1c0,0.3,0.3,0,0,0h-22.1c-0.3,0,0,0.3,0,0v-11.1c0-0.2-0.1-0.3-0.3-0.3h-22.7
		c-0.2,0-0.3,0.1-0.3,0.3v11.1c0,0.3,0.3,0,0,0h-22.1c-0.3,0,0,0.3,0,0v-11.1c0-0.2-0.1-0.3-0.3-0.3h-22.7c-0.2,0-0.3,0.1-0.3,0.3
		v11.1c0,0.3,0.3,0,0,0h-22.1c-0.3,0,0,0.3,0,0v-11.1c0-0.2-0.1-0.3-0.3-0.3h-22.7c-0.2,0-0.3,0.1-0.3,0.3v11.1c0,0.3,0.3,0,0,0
		h-22.1c-0.3,0,0,0.3,0,0v-11.1c0-0.2-0.1-0.3-0.3-0.3h-22.7c-0.2,0-0.3,0.1-0.3,0.3v11.1c0,0.3,0.3,0,0,0h-22.1c-0.3,0,0,0.3,0,0
		v-11.1c0-0.2-0.1-0.3-0.3-0.3h-22.7c-0.2,0-0.3,0.1-0.3,0.3v11.1c0,0.3,0.3,0,0,0h-22.1c-0.3,0,0,0.3,0,0v-11.1
		c0-0.2-0.1-0.3-0.3-0.3h-22.7c-0.2,0-0.3,0.1-0.3,0.3v11.1c0,0.3,0.3,0,0,0h-22.1c-0.3,0,0,0.3,0,0v-11.1c0-0.2-0.1-0.3-0.3-0.3
		h-22.7c-0.2,0-0.3,0.1-0.3,0.3v11.1c0,0.3,0.3,0,0,0h-22.1c-0.3,0,0,0.3,0,0v-11.1c0-0.2-0.1-0.3-0.3-0.3h-22.7
		c-0.2,0-0.3,0.1-0.3,0.3v11.1c0,0.3,0.3,0,0,0h-22.1c-0.3,0,0,0.3,0,0v-11.1c0-0.2-0.1-0.3-0.3-0.3h-22.7c-0.2,0-0.3,0.1-0.3,0.3
		v11.1c0,0.3,0.3,0,0,0h-22.1c-0.3,0,0,0.3,0,0v-11.1c0-0.2-0.1-0.3-0.3-0.3h-22.7c-0.2,0-0.3,0.1-0.3,0.3v11.1c0,0.3,0.3,0,0,0
		h-22.1c-0.3,0,0,0.3,0,0v-11.1c0-0.2-0.1-0.3-0.3-0.3h-22.7c-0.2,0-0.3,0.1-0.3,0.3v11.1c0,0.3,0.3,0,0,0h-22.1c-0.3,0,0,0.3,0,0
		v-11.1c0-0.2-0.1-0.3-0.3-0.3h-22.7c-0.2,0-0.3,0.1-0.3,0.3v11.1c0,0.3,0.3,0,0,0h-22.2c-0.3,0,0,0.3,0,0v-11.1
		c0-0.2-0.1-0.3-0.3-0.3h-22.7c-0.2,0-0.3,0.1-0.3,0.3v11.1c0,0.3,0.3,0,0,0h-22.1c-0.3,0,0,0.3,0,0v-11.1c0-0.2-0.1-0.3-0.3-0.3
		h-22.7c-0.2,0-0.3,0.1-0.3,0.3v11.1c0,0.3,0.3,0,0,0h-22.1c-0.3,0,0,0.3,0,0v-11.1c0-0.2-0.1-0.3-0.3-0.3h-22.7
		c-0.2,0-0.3,0.1-0.3,0.3v11.1c0,0.3,0.3,0,0,0h-22.1c-0.3,0,0,0.3,0,0v-11.1c0-0.2-0.1-0.3-0.3-0.3h-22.5c-0.2,0-0.3,0.1-0.3,0.3
		v11.1c0,0.3,0.3,0,0,0h-22.1c-0.3,0,0,0.3,0,0v-11.1c0-0.2-0.1-0.3-0.3-0.3h-39.7h-11.3c-0.2,0-0.3,0.1-0.3,0.3V144v22.7
		c0,0.2,0.1,0.3,0.3,0.3h11.1c0.3,0,0-0.3,0,0v22.1c0,0.3,0.3,0,0,0h-11.1c-0.2,0-0.3,0.1-0.3,0.3v22.7c0,0.2,0.1,0.3,0.3,0.3h11.1
		c0.3,0,0-0.3,0,0v22.1c0,0.3,0.3,0,0,0h-11.1c-0.2,0-0.3,0.1-0.3,0.3v22.7c0,0.2,0.1,0.3,0.3,0.3h11.1c0.3,0,0-0.3,0,0v22.1
		c0,0.3,0.3,0,0,0h-11.1c-0.2,0-0.3,0.1-0.3,0.3v22.7c0,0.2,0.1,0.3,0.3,0.3h11.1c0.3,0,0-0.3,0,0v22.1c0,0.3,0.3,0,0,0h-11.1
		c-0.2,0-0.3,0.1-0.3,0.3v22.7v11.3c0,0.2,0.1,0.3,0.3,0.3h11.3"/>
</g>
<g id="p-5">
	<path class="st2" d="M77.4,752.8h39.4c0.3,0,0-0.3,0,0v11.1c0,0.2,0.1,0.3,0.3,0.3h22.7c0.2,0,0.3-0.1,0.3-0.3v-11.1
		c0-0.3-0.3,0,0,0h22.1c0.3,0,0-0.3,0,0v11.1c0,0.2,0.1,0.3,0.3,0.3h22.7c0.2,0,0.3-0.1,0.3-0.3v-11.1c0-0.3-0.3,0,0,0h22.1
		c0.3,0,0-0.3,0,0v11.1c0,0.2,0.1,0.3,0.3,0.3h22.7c0.2,0,0.3-0.1,0.3-0.3v-11.1c0-0.3-0.3,0,0,0H253c0.3,0,0-0.3,0,0v11.1
		c0,0.2,0.1,0.3,0.3,0.3H276c0.2,0,0.3-0.1,0.3-0.3v-11.1c0-0.3-0.3,0,0,0h22.1c0.3,0,0-0.3,0,0v11.1c0,0.2,0.1,0.3,0.3,0.3h22.7
		c0.2,0,0.3-0.1,0.3-0.3v-11.1c0-0.3-0.3,0,0,0h22.1c0.3,0,0-0.3,0,0v11.1c0,0.2,0.1,0.3,0.3,0.3h22.7c0.2,0,0.3-0.1,0.3-0.3v-11.1
		c0-0.3-0.3,0,0,0h22.1c0.3,0,0-0.3,0,0v11.1c0,0.2,0.1,0.3,0.3,0.3h22.7c0.2,0,0.3-0.1,0.3-0.3v-11.1c0-0.3-0.3,0,0,0h22.1
		c0.3,0,0-0.3,0,0v11.1c0,0.2,0.1,0.3,0.3,0.3h22.7c0.2,0,0.3-0.1,0.3-0.3v-11.1c0-0.3-0.3,0,0,0H480c0.3,0,0-0.3,0,0v11.1
		c0,0.2,0.1,0.3,0.3,0.3H503c0.2,0,0.3-0.1,0.3-0.3v-11.1c0-0.3-0.3,0,0,0h22.1c0.3,0,0-0.3,0,0v11.1c0,0.2,0.1,0.3,0.3,0.3h22.7
		c0.2,0,0.3-0.1,0.3-0.3v-11.1c0-0.3-0.3,0,0,0h22.1c0.3,0,0-0.3,0,0v11.1c0,0.2,0.1,0.3,0.3,0.3h22.7c0.2,0,0.3-0.1,0.3-0.3v-11.1
		c0-0.3-0.3,0,0,0h22.1c0.3,0,0-0.3,0,0v11.1c0,0.2,0.1,0.3,0.3,0.3h22.7c0.2,0,0.3-0.1,0.3-0.3v-11.1c0-0.3-0.3,0,0,0h22.1
		c0.3,0,0-0.3,0,0v11.1c0,0.2,0.1,0.3,0.3,0.3h22.7c0.2,0,0.3-0.1,0.3-0.3v-11.1c0-0.3-0.3,0,0,0H707c0.3,0,0-0.3,0,0v11.1
		c0,0.2,0.1,0.3,0.3,0.3H730c0.2,0,0.3-0.1,0.3-0.3v-11.1c0-0.3-0.3,0,0,0h22.1c0.3,0,0-0.3,0,0v11.1c0,0.2,0.1,0.3,0.3,0.3h22.7
		c0.2,0,0.3-0.1,0.3-0.3v-11.1c0-0.3-0.3,0,0,0h22.1c0.3,0,0-0.3,0,0v11.1c0,0.2,0.1,0.3,0.3,0.3h22.7c0.2,0,0.3-0.1,0.3-0.3v-11.1
		c0-0.3-0.3,0,0,0h22.1c0.3,0,0-0.3,0,0v11.1c0,0.2,0.1,0.3,0.3,0.3h22.7c0.2,0,0.3-0.1,0.3-0.3v-11.1c0-0.3-0.3,0,0,0h39.4
		c0.2,0,0.3-0.1,0.3-0.3v-36.6c0-0.3-0.3,0,0,0h11.1c0.2,0,0.3-0.1,0.3-0.3v-22.7c0-0.2-0.1-0.3-0.3-0.3h-11.1c-0.3,0,0,0.3,0,0
		v-22.1c0-0.3-0.3,0,0,0h11.1c0.2,0,0.3-0.1,0.3-0.3v-22.7c0-0.2-0.1-0.3-0.3-0.3h-11.1c-0.3,0,0,0.3,0,0v-22.1c0-0.3-0.3,0,0,0
		h11.1c0.2,0,0.3-0.1,0.3-0.3v-22.7c0-0.2-0.1-0.3-0.3-0.3h-11.1c-0.3,0,0,0.3,0,0v-22.1c0-0.3-0.3,0,0,0h11.1
		c0.2,0,0.3-0.1,0.3-0.3v-22.7c0-0.2-0.1-0.3-0.3-0.3h-11.1c-0.3,0,0,0.3,0,0v-22.1c0-0.3-0.3,0,0,0h11.1c0.2,0,0.3-0.1,0.3-0.3
		v-22.7c0-0.2-0.1-0.3-0.3-0.3h-11.1c-0.3,0,0,0.3,0,0v-22.1c0-0.3-0.3,0,0,0h11.1c0.2,0,0.3-0.1,0.3-0.3v-22.7
		c0-0.2-0.1-0.3-0.3-0.3h-11.1c-0.3,0,0,0.3,0,0v-22.1c0-0.3-0.3,0,0,0h11.1c0.2,0,0.3-0.1,0.3-0.3v-22.7c0-0.2-0.1-0.3-0.3-0.3
		h-11.1c-0.3,0,0,0.3,0,0v-22.1c0-0.3-0.3,0,0,0h11.1c0.2,0,0.3-0.1,0.3-0.3v-22.7c0-0.2-0.1-0.3-0.3-0.3h-11.1c-0.3,0,0,0.3,0,0
		v-22.1c0-0.3-0.3,0,0,0h11.1c0.2,0,0.3-0.1,0.3-0.3v-22.7c0-0.2-0.1-0.3-0.3-0.3h-11.1c-0.3,0,0,0.3,0,0v-22.1c0-0.3-0.3,0,0,0
		h11.1c0.2,0,0.3-0.1,0.3-0.3v-22.7c0-0.2-0.1-0.3-0.3-0.3h-11.1c-0.3,0,0,0.3,0,0v-22.1c0-0.3-0.3,0,0,0h11.1
		c0.2,0,0.3-0.1,0.3-0.3v-22.7c0-0.2-0.1-0.3-0.3-0.3h-11.1c-0.3,0,0,0.3,0,0V217c0-0.3-0.3,0,0,0h11.1c0.2,0,0.3-0.1,0.3-0.3V194
		c0-0.2-0.1-0.3-0.3-0.3h-11.1c-0.3,0,0,0.3,0,0v-22.1c0-0.3-0.3,0,0,0h11.1c0.2,0,0.3-0.1,0.3-0.3v-22.7c0-0.2-0.1-0.3-0.3-0.3
		h-11.1c-0.3,0,0,0.3,0,0v-22.1c0-0.3-0.3,0,0,0h11.1c0.2,0,0.3-0.1,0.3-0.3v-22.7c0-0.2-0.1-0.3-0.3-0.3h-11.1c-0.3,0,0,0.3,0,0
		V66.5c0-0.2-0.1-0.3-0.3-0.3h-39.4c-0.3,0,0,0.3,0,0V55.1c0-0.2-0.1-0.3-0.3-0.3h-22.7c-0.2,0-0.3,0.1-0.3,0.3v11.1
		c0,0.3,0.3,0,0,0h-22.1c-0.3,0,0,0.3,0,0V55.1c0-0.2-0.1-0.3-0.3-0.3h-22.7c-0.2,0-0.3,0.1-0.3,0.3v11.1c0,0.3,0.3,0,0,0h-22.1
		c-0.3,0,0,0.3,0,0V55.1c0-0.2-0.1-0.3-0.3-0.3h-22.7c-0.2,0-0.3,0.1-0.3,0.3v11.1c0,0.3,0.3,0,0,0h-22.1c-0.3,0,0,0.3,0,0V55.1
		c0-0.2-0.1-0.3-0.3-0.3h-22.7c-0.2,0-0.3,0.1-0.3,0.3v11.1c0,0.3,0.3,0,0,0h-22.1c-0.3,0,0,0.3,0,0V55.1c0-0.2-0.1-0.3-0.3-0.3
		h-22.7c-0.2,0-0.3,0.1-0.3,0.3v11.1c0,0.3,0.3,0,0,0h-22.1c-0.3,0,0,0.3,0,0V55.1c0-0.2-0.1-0.3-0.3-0.3h-22.7
		c-0.2,0-0.3,0.1-0.3,0.3v11.1c0,0.3,0.3,0,0,0h-22.1c-0.3,0,0,0.3,0,0V55.1c0-0.2-0.1-0.3-0.3-0.3h-22.7c-0.2,0-0.3,0.1-0.3,0.3
		v11.1c0,0.3,0.3,0,0,0h-22.1c-0.3,0,0,0.3,0,0V55.1c0-0.2-0.1-0.3-0.3-0.3h-22.7c-0.2,0-0.3,0.1-0.3,0.3v11.1c0,0.3,0.3,0,0,0
		h-22.1c-0.3,0,0,0.3,0,0V55.1c0-0.2-0.1-0.3-0.3-0.3h-22.7c-0.2,0-0.3,0.1-0.3,0.3v11.1c0,0.3,0.3,0,0,0h-22.1c-0.3,0,0,0.3,0,0
		V55.1c0-0.2-0.1-0.3-0.3-0.3h-22.7c-0.2,0-0.3,0.1-0.3,0.3v11.1c0,0.3,0.3,0,0,0h-22.1c-0.3,0,0,0.3,0,0V55.1
		c0-0.2-0.1-0.3-0.3-0.3h-22.7c-0.2,0-0.3,0.1-0.3,0.3v11.1c0,0.3,0.3,0,0,0h-22.1c-0.3,0,0,0.3,0,0V55.1c0-0.2-0.1-0.3-0.3-0.3
		h-22.7c-0.2,0-0.3,0.1-0.3,0.3v11.1c0,0.3,0.3,0,0,0h-22.1c-0.3,0,0,0.3,0,0V55.1c0-0.2-0.1-0.3-0.3-0.3h-22.7
		c-0.2,0-0.3,0.1-0.3,0.3v11.1c0,0.3,0.3,0,0,0h-22.1c-0.3,0,0,0.3,0,0V55.1c0-0.2-0.1-0.3-0.3-0.3h-22.7c-0.2,0-0.3,0.1-0.3,0.3
		v11.1c0,0.3,0.3,0,0,0h-22.1c-0.3,0,0,0.3,0,0V55.1c0-0.2-0.1-0.3-0.3-0.3h-22.7c-0.2,0-0.3,0.1-0.3,0.3v11.1c0,0.3,0.3,0,0,0
		h-22.1c-0.3,0,0,0.3,0,0V55.1c0-0.2-0.1-0.3-0.3-0.3h-22.7c-0.2,0-0.3,0.1-0.3,0.3v11.1c0,0.3,0.3,0,0,0h-22.1c-0.3,0,0,0.3,0,0
		V55.1c0-0.2-0.1-0.3-0.3-0.3h-22.7c-0.2,0-0.3,0.1-0.3,0.3v11.1c0,0.3,0.3,0,0,0H77.4c-0.2,0-0.3,0.1-0.3,0.3v36.6c0,0.3,0.3,0,0,0
		H66c-0.2,0-0.3,0.1-0.3,0.3V126c0,0.2,0.1,0.3,0.3,0.3h11.1c0.3,0,0-0.3,0,0v22.1c0,0.3,0.3,0,0,0H66c-0.2,0-0.3,0.1-0.3,0.3v22.7
		c0,0.2,0.1,0.3,0.3,0.3h11.1c0.3,0,0-0.3,0,0v22.1c0,0.3,0.3,0,0,0H66c-0.2,0-0.3,0.1-0.3,0.3v22.7c0,0.2,0.1,0.3,0.3,0.3h11.1
		c0.3,0,0-0.3,0,0v22.1c0,0.3,0.3,0,0,0H66c-0.2,0-0.3,0.1-0.3,0.3v22.7c0,0.2,0.1,0.3,0.3,0.3h11.1c0.3,0,0-0.3,0,0v22.1
		c0,0.3,0.3,0,0,0H66c-0.2,0-0.3,0.1-0.3,0.3v22.7c0,0.2,0.1,0.3,0.3,0.3h11.1c0.3,0,0-0.3,0,0V330c0,0.3,0.3,0,0,0H66
		c-0.2,0-0.3,0.1-0.3,0.3V353c0,0.2,0.1,0.3,0.3,0.3h11.1c0.3,0,0-0.3,0,0v22.1c0,0.3,0.3,0,0,0H66c-0.2,0-0.3,0.1-0.3,0.3v22.7
		c0,0.2,0.1,0.3,0.3,0.3h11.1c0.3,0,0-0.3,0,0v22.1c0,0.3,0.3,0,0,0H66c-0.2,0-0.3,0.1-0.3,0.3v22.7c0,0.2,0.1,0.3,0.3,0.3h11.1
		c0.3,0,0-0.3,0,0v22.1c0,0.3,0.3,0,0,0H66c-0.2,0-0.3,0.1-0.3,0.3v22.7c0,0.2,0.1,0.3,0.3,0.3h11.1c0.3,0,0-0.3,0,0v22.1
		c0,0.3,0.3,0,0,0H66c-0.2,0-0.3,0.1-0.3,0.3v22.7c0,0.2,0.1,0.3,0.3,0.3h11.1c0.3,0,0-0.3,0,0V557c0,0.3,0.3,0,0,0H66
		c-0.2,0-0.3,0.1-0.3,0.3V580c0,0.2,0.1,0.3,0.3,0.3h11.1c0.3,0,0-0.3,0,0V602c0,0.3,0.3,0,0,0H66c-0.2,0-0.3,0.1-0.3,0.3V625
		c0,0.2,0.1,0.3,0.3,0.3h11.1c0.3,0,0-0.3,0,0v22.1c0,0.3,0.3,0,0,0H66c-0.2,0-0.3,0.1-0.3,0.3v22.7c0,0.2,0.1,0.3,0.3,0.3h11.1
		c0.3,0,0-0.3,0,0v22.1c0,0.3,0.3,0,0,0H66c-0.2,0-0.3,0.1-0.3,0.3v22.7c0,0.2,0.1,0.3,0.3,0.3h11.1c0.3,0,0-0.3,0,0v36.6
		C77.2,752.6,77.3,752.8,77.4,752.8"/>
</g>
<g id="p-6">
	<path class="st1" d="M1859.4,774.1h39.4c0.3,0,0-0.3,0,0v11.1c0,0.2,0.1,0.3,0.3,0.3h22.7c0.2,0,0.3-0.1,0.3-0.3v-11.1
		c0-0.3-0.3,0,0,0h22.1c0.3,0,0-0.3,0,0v11.1c0,0.2,0.1,0.3,0.3,0.3h22.7c0.2,0,0.3-0.1,0.3-0.3v-11.1c0-0.3-0.3,0,0,0h22.1
		c0.3,0,0-0.3,0,0v11.1c0,0.2,0.1,0.3,0.3,0.3h22.7c0.2,0,0.3-0.1,0.3-0.3v-11.1c0-0.3-0.3,0,0,0h22.1c0.3,0,0-0.3,0,0v11.1
		c0,0.2,0.1,0.3,0.3,0.3h22.7c0.2,0,0.3-0.1,0.3-0.3v-11.1c0-0.3-0.3,0,0,0h22.1c0.3,0,0-0.3,0,0v11.1c0,0.2,0.1,0.3,0.3,0.3h22.7
		c0.2,0,0.3-0.1,0.3-0.3v-11.1c0-0.3-0.3,0,0,0h22.1c0.3,0,0-0.3,0,0v11.1c0,0.2,0.1,0.3,0.3,0.3h22.7c0.2,0,0.3-0.1,0.3-0.3v-11.1
		c0-0.3-0.3,0,0,0h22.1c0.3,0,0-0.3,0,0v11.1c0,0.2,0.1,0.3,0.3,0.3h22.7c0.2,0,0.3-0.1,0.3-0.3v-11.1c0-0.3-0.3,0,0,0h22.1
		c0.3,0,0-0.3,0,0v11.1c0,0.2,0.1,0.3,0.3,0.3h22.7c0.2,0,0.3-0.1,0.3-0.3v-11.1c0-0.3-0.3,0,0,0h22.1c0.3,0,0-0.3,0,0v11.1
		c0,0.2,0.1,0.3,0.3,0.3h22.7c0.2,0,0.3-0.1,0.3-0.3v-11.1c0-0.3-0.3,0,0,0h22.1c0.3,0,0-0.3,0,0v11.1c0,0.2,0.1,0.3,0.3,0.3h22.7
		c0.2,0,0.3-0.1,0.3-0.3v-11.1c0-0.3-0.3,0,0,0h22.1c0.3,0,0-0.3,0,0v11.1c0,0.2,0.1,0.3,0.3,0.3h22.7c0.2,0,0.3-0.1,0.3-0.3v-11.1
		c0-0.3-0.3,0,0,0h22.1c0.3,0,0-0.3,0,0v11.1c0,0.2,0.1,0.3,0.3,0.3h22.7c0.2,0,0.3-0.1,0.3-0.3v-11.1c0-0.3-0.3,0,0,0h22.1
		c0.3,0,0-0.3,0,0v11.1c0,0.2,0.1,0.3,0.3,0.3h22.7c0.2,0,0.3-0.1,0.3-0.3v-11.1c0-0.3-0.3,0,0,0h22.1c0.3,0,0-0.3,0,0v11.1
		c0,0.2,0.1,0.3,0.3,0.3h22.7c0.2,0,0.3-0.1,0.3-0.3v-11.1c0-0.3-0.3,0,0,0h22.1c0.3,0,0-0.3,0,0v11.1c0,0.2,0.1,0.3,0.3,0.3h22.7
		c0.2,0,0.3-0.1,0.3-0.3v-11.1c0-0.3-0.3,0,0,0h22.1c0.3,0,0-0.3,0,0v11.1c0,0.2,0.1,0.3,0.3,0.3h22.7c0.2,0,0.3-0.1,0.3-0.3v-11.1
		c0-0.3-0.3,0,0,0h22.1c0.3,0,0-0.3,0,0v11.1c0,0.2,0.1,0.3,0.3,0.3h22.7c0.2,0,0.3-0.1,0.3-0.3v-11.1c0-0.3-0.3,0,0,0h39.4
		c0.2,0,0.3-0.1,0.3-0.3v-36.6c0-0.3-0.3,0,0,0h11.1c0.2,0,0.3-0.1,0.3-0.3v-22.7c0-0.2-0.1-0.3-0.3-0.3h-11.1c-0.3,0,0,0.3,0,0
		v-22.1c0-0.3-0.3,0,0,0h11.1c0.2,0,0.3-0.1,0.3-0.3v-22.7c0-0.2-0.1-0.3-0.3-0.3h-11.1c-0.3,0,0,0.3,0,0v-22.1c0-0.3-0.3,0,0,0
		h11.1c0.2,0,0.3-0.1,0.3-0.3v-22.5c0-0.2-0.1-0.3-0.3-0.3h-11.1c-0.3,0,0,0.3,0,0v-22.1c0-0.3-0.3,0,0,0h11.1
		c0.2,0,0.3-0.1,0.3-0.3v-22.7c0-0.2-0.1-0.3-0.3-0.3h-11.1c-0.3,0,0,0.3,0,0v-22.1c0-0.3-0.3,0,0,0h11.1c0.2,0,0.3-0.1,0.3-0.3
		v-22.7c0-0.2-0.1-0.3-0.3-0.3h-11.1c-0.3,0,0,0.3,0,0v-22.1c0-0.3-0.3,0,0,0h11.1c0.2,0,0.3-0.1,0.3-0.3v-22.7
		c0-0.2-0.1-0.3-0.3-0.3h-11.1c-0.3,0,0,0.3,0,0V465c0-0.3-0.3,0,0,0h11.1c0.2,0,0.3-0.1,0.3-0.3V442c0-0.2-0.1-0.3-0.3-0.3h-11.1
		c-0.3,0,0,0.3,0,0v-22.1c0-0.3-0.3,0,0,0h11.1c0.2,0,0.3-0.1,0.3-0.3v-22.7c0-0.2-0.1-0.3-0.3-0.3h-11.1c-0.3,0,0,0.3,0,0v-22.1
		c0-0.3-0.3,0,0,0h11.1c0.2,0,0.3-0.1,0.3-0.3v-22.7c0-0.2-0.1-0.3-0.3-0.3h-11.1c-0.3,0,0,0.3,0,0v-22.1c0-0.3-0.3,0,0,0h11.1
		c0.2,0,0.3-0.1,0.3-0.3v-22.7c0-0.2-0.1-0.3-0.3-0.3h-11.1c-0.3,0,0,0.3,0,0v-22.1c0-0.3-0.3,0,0,0h11.1c0.2,0,0.3-0.1,0.3-0.3
		v-22.7c0-0.2-0.1-0.3-0.3-0.3h-11.1c-0.3,0,0,0.3,0,0V238c0-0.3-0.3,0,0,0h11.1c0.2,0,0.3-0.1,0.3-0.3V215c0-0.2-0.1-0.3-0.3-0.3
		h-11.1c-0.3,0,0,0.3,0,0v-22.1c0-0.3-0.3,0,0,0h11.1c0.2,0,0.3-0.1,0.3-0.3v-22.7c0-0.2-0.1-0.3-0.3-0.3h-11.1c-0.3,0,0,0.3,0,0
		v-21.7c0-0.3-0.3,0,0,0h11.1c0.2,0,0.3-0.1,0.3-0.3v-22.7c0-0.2-0.1-0.3-0.3-0.3h-11.1c-0.3,0,0,0.3,0,0V87.8
		c0-0.2-0.1-0.3-0.3-0.3h-40.2c-0.3,0,0,0.3,0,0v-11c0-0.2-0.1-0.3-0.3-0.3h-22.7c-0.2,0-0.3,0.1-0.3,0.3v11.1c0,0.3,0.3,0,0,0
		h-22.1c-0.3,0,0,0.3,0,0V76.5c0-0.2-0.1-0.3-0.3-0.3h-22.7c-0.2,0-0.3,0.1-0.3,0.3v11.1c0,0.3,0.3,0,0,0h-22.1c-0.3,0,0,0.3,0,0
		V76.5c0-0.2-0.1-0.3-0.3-0.3h-22.7c-0.2,0-0.3,0.1-0.3,0.3v11.1c0,0.3,0.3,0,0,0h-22.1c-0.3,0,0,0.3,0,0V76.5
		c0-0.2-0.1-0.3-0.3-0.3h-22.7c-0.2,0-0.3,0.1-0.3,0.3v11.1c0,0.3,0.3,0,0,0h-22.1c-0.3,0,0,0.3,0,0V76.5c0-0.2-0.1-0.3-0.3-0.3
		h-22.7c-0.2,0-0.3,0.1-0.3,0.3v11.1c0,0.3,0.3,0,0,0h-22.1c-0.3,0,0,0.3,0,0V76.5c0-0.2-0.1-0.3-0.3-0.3h-22.7
		c-0.2,0-0.3,0.1-0.3,0.3v11.1c0,0.3,0.3,0,0,0h-22.1c-0.3,0,0,0.3,0,0V76.5c0-0.2-0.1-0.3-0.3-0.3h-22.7c-0.2,0-0.3,0.1-0.3,0.3
		v11.1c0,0.3,0.3,0,0,0h-22.1c-0.3,0,0,0.3,0,0V76.5c0-0.2-0.1-0.3-0.3-0.3h-22.7c-0.2,0-0.3,0.1-0.3,0.3v11.1c0,0.3,0.3,0,0,0
		h-22.1c-0.3,0,0,0.3,0,0V76.5c0-0.2-0.1-0.3-0.3-0.3h-22.7c-0.2,0-0.3,0.1-0.3,0.3v11.1c0,0.3,0.3,0,0,0h-22.1c-0.3,0,0,0.3,0,0
		V76.5c0-0.2-0.1-0.3-0.3-0.3h-22.7c-0.2,0-0.3,0.1-0.3,0.3v11.1c0,0.3,0.3,0,0,0h-22.1c-0.3,0,0,0.3,0,0V76.5
		c0-0.2-0.1-0.3-0.3-0.3h-22.7c-0.2,0-0.3,0.1-0.3,0.3v11.1c0,0.3,0.3,0,0,0h-22.1c-0.3,0,0,0.3,0,0V76.5c0-0.2-0.1-0.3-0.3-0.3
		h-22.7c-0.2,0-0.3,0.1-0.3,0.3v11.1c0,0.3,0.3,0,0,0h-22.1c-0.3,0,0,0.3,0,0V76.5c0-0.2-0.1-0.3-0.3-0.3h-22.7
		c-0.2,0-0.3,0.1-0.3,0.3v11.1c0,0.3,0.3,0,0,0h-22.1c-0.3,0,0,0.3,0,0V76.5c0-0.2-0.1-0.3-0.3-0.3h-22.7c-0.2,0-0.3,0.1-0.3,0.3
		v11.1c0,0.3,0.3,0,0,0h-22.1c-0.3,0,0,0.3,0,0V76.5c0-0.2-0.1-0.3-0.3-0.3h-22.7c-0.2,0-0.3,0.1-0.3,0.3v11.1c0,0.3,0.3,0,0,0
		h-22.1c-0.3,0,0,0.3,0,0V76.5c0-0.2-0.1-0.3-0.3-0.3h-22.7c-0.2,0-0.3,0.1-0.3,0.3v11.1c0,0.3,0.3,0,0,0h-22.1c-0.3,0,0,0.3,0,0
		V76.5c0-0.2-0.1-0.3-0.3-0.3h-22.7c-0.2,0-0.3,0.1-0.3,0.3v11.1c0,0.3,0.3,0,0,0h-39.4c-0.2,0-0.3,0.1-0.3,0.3v36.6
		c0,0.3,0.3,0,0,0h-11.1c-0.2,0-0.3,0.1-0.3,0.3v22.7c0,0.2,0.1,0.3,0.3,0.3h11.1c0.3,0,0-0.3,0,0v22.1c0,0.3,0.3,0,0,0h-11.1
		c-0.2,0-0.3,0.1-0.3,0.3v22.7c0,0.2,0.1,0.3,0.3,0.3h11.1c0.3,0,0-0.3,0,0v22.1c0,0.3,0.3,0,0,0h-11.1c-0.2,0-0.3,0.1-0.3,0.3v22.7
		c0,0.2,0.1,0.3,0.3,0.3h11.1c0.3,0,0-0.3,0,0v22.1c0,0.3,0.3,0,0,0h-11.1c-0.2,0-0.3,0.1-0.3,0.3v22.7c0,0.2,0.1,0.3,0.3,0.3h11.1
		c0.3,0,0-0.3,0,0v22.1c0,0.3,0.3,0,0,0h-11.1c-0.2,0-0.3,0.1-0.3,0.3v22.7c0,0.2,0.1,0.3,0.3,0.3h11.1c0.3,0,0-0.3,0,0v22.1
		c0,0.3,0.3,0,0,0h-11.1c-0.2,0-0.3,0.1-0.3,0.3v22.7c0,0.2,0.1,0.3,0.3,0.3h11.1c0.3,0,0-0.3,0,0v22.1c0,0.3,0.3,0,0,0h-11.1
		c-0.2,0-0.3,0.1-0.3,0.3v22.7c0,0.2,0.1,0.3,0.3,0.3h11.1c0.3,0,0-0.3,0,0v22.1c0,0.3,0.3,0,0,0h-11.1c-0.2,0-0.3,0.1-0.3,0.3v22.7
		c0,0.2,0.1,0.3,0.3,0.3h11.1c0.3,0,0-0.3,0,0v22.1c0,0.3,0.3,0,0,0h-11.1c-0.2,0-0.3,0.1-0.3,0.3v22.7c0,0.2,0.1,0.3,0.3,0.3h11.1
		c0.3,0,0-0.3,0,0v21.6c0,0.3,0.3,0,0,0h-11.1c-0.2,0-0.3,0.1-0.3,0.3v22.7c0,0.2,0.1,0.3,0.3,0.3h11.1c0.3,0,0-0.3,0,0V578
		c0,0.3,0.3,0,0,0h-11.1c-0.2,0-0.3,0.1-0.3,0.3V601c0,0.2,0.1,0.3,0.3,0.3h11.1c0.3,0,0-0.3,0,0v22.1c0,0.3,0.3,0,0,0h-11.1
		c-0.2,0-0.3,0.1-0.3,0.3v22.7c0,0.2,0.1,0.3,0.3,0.3h11.1c0.3,0,0-0.3,0,0v21.9c0,0.3,0.3,0,0,0h-11.1c-0.2,0-0.3,0.1-0.3,0.3v22.7
		c0,0.2,0.1,0.3,0.3,0.3h11.1c0.3,0,0-0.3,0,0V714c0,0.3,0.3,0,0,0h-11.1c-0.2,0-0.3,0.1-0.3,0.3V737c0,0.2,0.1,0.3,0.3,0.3h11.1
		c0.3,0,0-0.3,0,0v36.6C1859.1,773.9,1859.2,774.1,1859.4,774.1"/>
</g>
<rect x="131.8" y="626.4" class="st3" width="39.7" height="70.9"/>
<rect x="811.5" y="626.4" class="st3" width="39.7" height="70.9"/>
<rect x="809.7" y="123.4" class="st3" width="39.7" height="70.9"/>
<rect x="131.9" y="123.4" class="st3" width="39.7" height="70.9"/>
<circle class="st3" cx="492.7" cy="409.5" r="21.4"/>
<rect x="-1027.3" y="491" class="st4" width="121.9" height="48.2"/>
<circle class="st3" cx="2273.3" cy="557.5" r="17.1"/>
</svg>
